<?xml version="1.0" encoding="iso-8859-1"?>
<!-- Generator: Adobe Illustrator 19.0.0, SVG Export Plug-In . SVG Version: 6.00 Build 0)  -->
<svg xmlns="http://www.w3.org/2000/svg" xmlns:xlink="http://www.w3.org/1999/xlink" version="1.1" id="Layer_1" x="0px" y="0px" viewBox="0 0 512 512" style="enable-background:new 0 0 512 512;" xml:space="preserve">
<path style="fill:#E4EAF8;" d="M411.422,82.267H26.894c-10.113,0-18.311,8.198-18.311,18.311v384.528  c0,10.113,8.198,18.311,18.311,18.311h384.528c10.113,0,18.311-8.198,18.311-18.311V100.578  C429.733,90.465,421.534,82.267,411.422,82.267z"/>
<path style="fill:#5B5D6E;" d="M472.158,13.947l25.895,25.895c7.15,7.152,7.15,18.746,0,25.896L265.456,298.335  c-4.02,4.02-8.921,7.05-14.315,8.846l-40.698,13.566l-19.192-19.192l13.566-40.698c1.798-5.394,4.827-10.294,8.846-14.314  L446.263,13.947C453.413,6.796,465.007,6.796,472.158,13.947z"/>
<path style="fill:#707487;" d="M200.847,311.153L485.106,26.894l12.948,12.947c7.15,7.152,7.15,18.746,0,25.896L265.456,298.335  c-4.02,4.02-8.921,7.05-14.315,8.846l-40.698,13.566L200.847,311.153z"/>
<path style="fill:#C7CFE2;" d="M455.629,108.162l-51.79-51.79l42.425-42.425c7.152-7.152,18.745-7.152,25.895,0l25.895,25.895  c7.15,7.152,7.15,18.746,0,25.896L455.629,108.162z"/>
<path style="fill:#AFB9D2;" d="M429.733,82.267l-25.895-25.895l42.425-42.425c7.152-7.152,18.745-7.152,25.895,0l12.948,12.947  L429.733,82.267z"/>
<path style="fill:#959CB5;" d="M265.816,297.975l-0.36,0.36c-4.02,4.02-8.921,7.05-14.315,8.846l-68.605,22.282l22.281-68.604  c1.798-5.394,4.827-10.294,8.846-14.314l0.361-0.361L265.816,297.975z"/>
<path style="fill:#AFB9D2;" d="M182.536,329.464l57.384-57.384l25.895,25.895l-0.361,0.36c-4.02,4.02-8.921,7.05-14.314,8.846  L182.536,329.464z"/>
<rect x="403.834" y="53.222" transform="matrix(-0.7071 -0.7071 0.7071 -0.7071 701.3227 433.5596)" style="fill:#464655;" width="73.242" height="36.618"/>
<rect x="435.097" y="66.18" transform="matrix(-0.7071 0.7071 -0.7071 -0.7071 833.7553 -176.3723)" style="fill:#5B5D6E;" width="36.618" height="36.621"/>
<path d="M429.733,183.549c-4.74,0-8.583,3.843-8.583,8.583v18.31c0,4.74,3.843,8.583,8.583,8.583c4.74,0,8.583-3.843,8.583-8.583  v-18.31C438.316,187.392,434.473,183.549,429.733,183.549z"/>
<path d="M429.733,238.482c-4.74,0-8.583,3.843-8.583,8.583v238.041c0,5.364-4.364,9.728-9.728,9.728H26.894  c-5.364,0-9.728-4.364-9.728-9.728V100.578c0-5.364,4.364-9.728,9.728-9.728h238.041c4.74,0,8.583-3.843,8.583-8.583  s-3.843-8.583-8.583-8.583H26.894C12.065,73.684,0,85.749,0,100.578v384.528C0,499.935,12.065,512,26.894,512h384.528  c14.83,0,26.894-12.065,26.894-26.894V247.065C438.316,242.325,434.473,238.482,429.733,238.482z"/>
<path d="M301.558,90.85h18.31c4.74,0,8.583-3.843,8.583-8.583s-3.843-8.583-8.583-8.583h-18.31c-4.74,0-8.583,3.843-8.583,8.583  S296.818,90.85,301.558,90.85z"/>
<path d="M512,52.789c0-7.184-2.798-13.938-7.877-19.017L478.228,7.877C473.148,2.798,466.395,0,459.21,0  c-7.185,0-13.938,2.798-19.017,7.877L207.596,240.475c-4.937,4.936-8.714,11.046-10.921,17.67l-23.162,69.485  c-1.028,3.084-0.225,6.484,2.074,8.783c1.637,1.637,3.829,2.514,6.07,2.514c0.908,0,1.824-0.144,2.713-0.441l69.485-23.162  c6.624-2.208,12.733-5.984,17.669-10.92L504.122,71.807C509.202,66.727,512,59.974,512,52.789z M452.736,98.915l-39.652-39.652  l13.757-13.757l39.652,39.652L452.736,98.915z M265.815,285.836l-39.652-39.652L400.946,71.402l39.652,39.652L265.815,285.836z   M195.227,316.773l17.734-53.2c0.507-1.52,1.148-2.995,1.908-4.407l37.965,37.965c-1.412,0.76-2.887,1.402-4.407,1.908  L195.227,316.773z M491.984,59.668L478.632,73.02L438.98,33.368l13.352-13.352c1.837-1.837,4.279-2.85,6.878-2.85  c2.599,0,5.041,1.012,6.879,2.85l25.895,25.895c1.837,1.837,2.85,4.28,2.85,6.879S493.821,57.83,491.984,59.668z"/>
<g>
</g>
<g>
</g>
<g>
</g>
<g>
</g>
<g>
</g>
<g>
</g>
<g>
</g>
<g>
</g>
<g>
</g>
<g>
</g>
<g>
</g>
<g>
</g>
<g>
</g>
<g>
</g>
<g>
</g>
</svg>
