<?xml version="1.0" encoding="UTF-8"?>
<!DOCTYPE svg PUBLIC "-//W3C//DTD SVG 1.1//EN" "http://www.w3.org/Graphics/SVG/1.1/DTD/svg11.dtd">
<!-- Creator: CorelDRAW -->
<svg xmlns="http://www.w3.org/2000/svg" xml:space="preserve" width="6.82666in" height="6.82666in" style="shape-rendering:geometricPrecision; text-rendering:geometricPrecision; image-rendering:optimizeQuality; fill-rule:evenodd; clip-rule:evenodd"
viewBox="0 0 6.82666 6.82666"
 xmlns:xlink="http://www.w3.org/1999/xlink">
 <defs>
  <style type="text/css">
   <![CDATA[
    .fil4 {fill:none}
    .fil3 {fill:#545454;fill-rule:nonzero}
    .fil1 {fill:#7E7E7E;fill-rule:nonzero}
    .fil0 {fill:#8B8C8C;fill-rule:nonzero}
    .fil2 {fill:#C4C4C4;fill-rule:nonzero}
   ]]>
  </style>
 </defs>
 <g id="Layer_x0020_1">
  <metadata id="CorelCorpID_0Corel-Layer"/>
  <g id="_256400752">
   <path id="_256402432" class="fil0" d="M4.49783 2.08766l0.00321654 -0.178925 0.000291339 3.93701e-006c0.00943307,-0.0581496 -0.0300551,-0.112945 -0.0882047,-0.122378 -0.0026063,-0.00042126 -0.00520079,-0.000744094 -0.0077874,-0.000972441l-2.51641 -0.408433 -0.0170827 0.105 0.0170906 -0.105291c-0.0581496,-0.00943701 -0.112945,0.0300512 -0.122382,0.0882008 -0.00042126,0.0026063 -0.000744094,0.00520472 -0.000972441,0.00779528 -0.0786417,0.484402 -0.16524,1.00375 -0.300713,1.49382 -0.134626,0.487008 -0.31787,0.946854 -0.590567,1.31718l-0.000192913 -0.000141732c-0.0349331,0.0474331 -0.0248031,0.114209 0.0226299,0.149142 0.0164134,0.0120866 0.0351339,0.0187756 0.0540591,0.0203937l2.01595 0.328335c-0.100016,-0.231409 -0.0339646,-0.478386 -0.1025,-0.720118 -0.132047,-0.46576 -0.246469,-0.751906 -0.325291,-1.22936l-0.00042126 6.69291e-005c-0.0193661,-0.11935 -0.0211535,-0.0962992 -0.00601181,-0.215079 0.026189,-0.0688661 0.087374,-0.122295 0.165295,-0.134965 0.00312598,-0.000507874 0.00620866,-0.000870079 0.00933465,-0.00122441l1.79067 -0.393043z"/>
   <g>
    <path id="_256402072" class="fil1" d="M1.91146 3.07506c-0.0289213,-0.00505906 -0.0564685,0.0142874 -0.0615276,0.0432087 -0.00505906,0.0289173 0.0142913,0.0564646 0.0432087,0.0615236l0.866252 0.148894c0.0289173,0.00505906 0.0564685,-0.0142874 0.0615236,-0.0432087 0.00505906,-0.0289213 -0.0142874,-0.0564685 -0.0432087,-0.0615276l-0.866248 -0.14889z"/>
    <path id="_256402216" class="fil1" d="M1.9635 2.68367c-0.0289567,-0.00494882 -0.0564488,0.0145197 -0.0614016,0.0434803 -0.00494882,0.0289567 0.0145197,0.0564488 0.0434764,0.0614016l1.47945 0.249315c0.0289606,0.00495276 0.0564528,-0.0145197 0.0614016,-0.0434764 0.00495276,-0.0289606 -0.0145157,-0.0564528 -0.0434764,-0.0614016l-1.47945 -0.249319z"/>
    <path id="_256402408" class="fil1" d="M2.07916 2.27614c-0.0289724,-0.00458661 -0.0561772,0.015189 -0.0607638,0.0441614 -0.00458661,0.0289724 0.015185,0.0561772 0.0441575,0.0607638l1.48533 0.233425c0.0289724,0.00458661 0.0561772,-0.015185 0.0607638,-0.0441575 0.00458661,-0.0289724 -0.015185,-0.0561772 -0.0441575,-0.0607638l-1.48533 -0.233429z"/>
   </g>
   <path id="_256401496" class="fil2" d="M2.42133 2.37363l2.5164 -0.408429 0.0170827 0.105 -0.0170906 -0.105291c0.0581496,-0.00943701 0.112945,0.0300512 0.122382,0.0882008 0.00042126,0.0026063 0.000744094,0.00520472 0.000972441,0.00779528 0.0786417,0.484398 0.16524,1.00375 0.300713,1.49382 0.134626,0.487004 0.317866,0.946854 0.590567,1.31717l0.000192913 -0.000141732c0.0349331,0.0474331 0.0248031,0.114209 -0.0226299,0.149142 -0.0164134,0.0120866 -0.0351378,0.0187756 -0.0540591,0.0203937l-2.51631 0.408421 -0.0170827 -0.105 0.0170906 0.105291c-0.044815,0.00727165 -0.0876339,-0.0145197 -0.109236,-0.0515118 -0.276193,-0.405346 -0.467677,-0.885094 -0.610126,-1.38753 -0.141551,-0.499272 -0.234606,-1.02127 -0.314575,-1.51398l0.105 -0.0170827 -0.105291 0.0170906c-0.00943701,-0.0581496 0.0300512,-0.112945 0.0882008,-0.122382 0.00261024,-0.000425197 0.00521654,-0.000748031 0.00780709,-0.000976378z"/>
   <path id="_256400992" class="fil3" d="M3.45909 4.34867c-0.028878,0.00551969 -0.047811,0.0334134 -0.0422913,0.0622913 0.00551969,0.028878 0.0334134,0.047811 0.0622913,0.0422913l0.440516 -0.0847165c0.028878,-0.00551969 0.047811,-0.0334134 0.0422913,-0.0622913 -0.00551969,-0.028878 -0.0334134,-0.047811 -0.0622913,-0.0422913l-0.440516 0.0847165z"/>
   <path id="_256401304" class="fil3" d="M3.26466 3.91662c-0.028878,0.00529134 -0.048,0.0329961 -0.0427087,0.061874 0.00529134,0.028878 0.0329961,0.048 0.061874,0.0427087l0.864091 -0.160957c0.028878,-0.00529134 0.048,-0.0329961 0.0427087,-0.061874 -0.00529134,-0.028878 -0.0329961,-0.048 -0.061874,-0.0427087l-0.864091 0.160957z"/>
   <path id="_256401280" class="fil3" d="M3.14585 3.46763c-0.028878,0.00540551 -0.0479055,0.0332047 -0.0425,0.0620827 0.00540551,0.028878 0.0332047,0.0479055 0.0620827,0.0425l1.47403 -0.279559c0.028878,-0.00540551 0.0479055,-0.0332047 0.0425,-0.0620827 -0.00540551,-0.028878 -0.0332047,-0.0479055 -0.0620827,-0.0425l-1.47403 0.279559z"/>
   <path id="_256401640" class="fil3" d="M3.04357 3.11204c-0.0287638,0.00575197 -0.0474173,0.0337362 -0.0416654,0.0625 0.00575197,0.0287638 0.0337362,0.0474173 0.0625,0.0416654l1.47403 -0.2965c0.0287638,-0.00575197 0.0474173,-0.0337362 0.0416654,-0.0625 -0.00575197,-0.0287638 -0.0337362,-0.0474173 -0.0625,-0.0416654l-1.47403 0.2965z"/>
   <path id="_256400440" class="fil1" d="M1.789 3.45444c-0.0289685,-0.00503543 -0.0565354,0.014374 -0.0615709,0.0433386 -0.00503543,0.0289646 0.0143701,0.0565315 0.0433386,0.0615669l0.442043 0.0763504c0.0289646,0.00503937 0.0565315,-0.0143701 0.0615669,-0.0433346 0.00503543,-0.0289685 -0.0143701,-0.0565315 -0.0433386,-0.0615709l-0.442039 -0.0763504z"/>
  </g>
 </g>
 <rect class="fil4" width="6.82666" height="6.82666"/>
</svg>
