<svg width="970" height="173" viewBox="0 0 970 173" fill="none" xmlns="http://www.w3.org/2000/svg">
<rect x="72" y="109.613" width="240.611" height="63" transform="rotate(-6.29931 72 109.613)" fill="#C4C4C4"/>
<path d="M948.434 124.991C947.901 130.27 943.578 135.362 935.122 139.896C926.742 144.39 914.768 148.07 899.983 150.714C870.441 155.998 830.142 157.069 786.113 152.625C742.085 148.181 702.813 139.078 674.923 127.998C660.965 122.452 649.967 116.454 642.654 110.376C635.275 104.243 632.056 98.39 632.589 93.1114C633.122 87.8328 637.445 82.7405 645.901 78.206C654.281 73.712 666.255 70.0326 681.04 67.3883C710.582 62.1048 750.881 61.0334 794.91 65.4773C838.938 69.9213 878.21 79.0242 906.1 90.1046C920.059 95.6501 931.056 101.648 938.369 107.726C945.748 113.859 948.967 119.712 948.434 124.991Z" stroke="#C4C4C4" stroke-width="4"/>
<path d="M28.3803 40.6489L11.303 53.2992L34.3411 83.0264L50.1048 71.3492L28.3803 40.6489ZM37.2604 86.9673L46.0183 98.79L61.782 87.1128L53.0241 75.2901L37.2604 86.9673Z" fill="#545454"/>
<path d="M75.4167 16.7736L54.8482 22.1217L65.1013 58.3064L84.0876 53.3697L75.4167 16.7736ZM66.3354 63.053L70.038 77.2927L89.0243 72.356L85.3217 58.1163L66.3354 63.053Z" fill="#545454"/>
<path d="M94.506 121.238H109.922C109.102 125.092 104.1 126.24 95.9 126.24C83.354 126.24 81.14 120.008 81.14 113.038C81.14 106.15 83.272 100.82 95.9 100.82C104.92 100.82 109.102 103.526 109.922 106.478H131.734C130.832 90.816 118.86 82.78 95.9 82.78C72.284 82.78 59.82 92.292 59.82 112.218C59.82 132.226 72.284 141.82 93.44 141.82C105.494 141.82 113.038 138.376 117.876 132.718L119.434 141H131.734V109.758H94.506V121.238ZM173.018 90.98C164.982 90.98 158.258 93.522 153.912 100V91.8H134.232V141H153.912V114.432C159.57 108.2 167.196 107.38 174.166 107.38C177.774 107.38 181.464 107.872 186.056 109.02V92.62C182.776 91.8 178.758 90.98 173.018 90.98ZM218.042 90.98C208.94 90.98 198.28 92.784 188.44 95.982L194.836 109.922C203.856 107.954 211.072 107.38 217.386 107.38C223.946 107.38 230.178 107.626 230.178 113.53C225.668 111.89 220.42 110.988 213.532 110.988C199.182 110.988 184.422 114.35 184.422 127.142C184.422 137.802 194.262 141.82 205.496 141.82C214.024 141.82 222.552 140.59 230.178 135.014V141H249.858V116.646C249.694 97.868 238.214 90.98 218.042 90.98ZM230.178 124.928C225.258 127.06 218.042 128.7 211.4 128.7C206.398 128.7 204.102 128.29 204.102 125.584C204.102 122.468 208.038 121.648 217.14 121.648C222.798 121.648 227.062 122.058 230.178 122.878V124.928ZM293.164 90.98C285.538 90.98 277.994 93.276 272.828 98.524V75.4H253.148V141H272.828V134.276C277.994 139.524 285.538 141.82 293.164 141.82C305.874 141.82 320.06 136.244 320.06 116.4C320.06 96.556 305.874 90.98 293.164 90.98ZM286.604 125.42C277.83 125.42 272.828 123.616 272.828 116.4C272.828 109.184 277.83 107.38 286.604 107.38C295.378 107.38 300.38 109.184 300.38 116.4C300.38 123.616 295.378 125.42 286.604 125.42ZM403.79 91.8L390.096 125.994L375.828 91.8H354.508L375.008 141H384.028L375.828 161.5H397.148L425.11 91.8H403.79ZM453.628 141.82C474.538 141.82 487.084 134.604 487.084 116.4C487.084 98.196 474.538 90.98 453.628 90.98C432.718 90.98 420.172 98.196 420.172 116.4C420.172 134.604 432.718 141.82 453.628 141.82ZM453.628 125.42C444.854 125.42 439.852 123.616 439.852 116.4C439.852 109.184 444.854 107.38 453.628 107.38C462.402 107.38 467.404 109.184 467.404 116.4C467.404 123.616 462.402 125.42 453.628 125.42ZM536.934 91.8V118.368C533.08 122.058 526.93 124.6 521.108 124.6C512.252 124.6 509.218 120.992 509.218 112.546V91.8H489.538V120.582C489.538 138.376 502.084 141.82 513.154 141.82C523.486 141.82 531.03 138.54 536.934 134.44V141H556.614V91.8H536.934ZM598.713 90.98C590.677 90.98 583.953 93.522 579.607 100V91.8H559.927V141H579.607V114.432C585.265 108.2 592.891 107.38 599.861 107.38C603.469 107.38 607.159 107.872 611.751 109.02V92.62C608.471 91.8 604.453 90.98 598.713 90.98ZM690.512 90.98C680.18 90.98 672.636 94.26 666.732 98.36V91.8H647.052V141H666.732V114.432C670.586 110.742 676.736 108.2 682.558 108.2C691.414 108.2 694.448 111.808 694.448 120.254V141H714.128V112.218C714.128 94.424 701.582 90.98 690.512 90.98ZM749.276 141.82C770.186 141.82 782.732 134.604 782.732 116.4C782.732 98.196 770.186 90.98 749.276 90.98C728.366 90.98 715.82 98.196 715.82 116.4C715.82 134.604 728.366 141.82 749.276 141.82ZM749.276 125.42C740.502 125.42 735.5 123.616 735.5 116.4C735.5 109.184 740.502 107.38 749.276 107.38C758.05 107.38 763.052 109.184 763.052 116.4C763.052 123.616 758.05 125.42 749.276 125.42ZM832.457 108.2V91.8H812.367V78.68L792.687 83.6V91.8H782.765V108.2H792.687V126.486C792.687 137.146 800.231 141.82 815.483 141.82C821.961 141.82 827.783 141.41 832.457 140.59V124.6C826.799 125.42 824.339 125.42 819.911 125.42C814.171 125.42 812.367 123.042 812.367 118.368V108.2H832.457ZM866.731 126.24C861.319 126.24 855.825 124.928 854.185 119.68H900.843C900.843 98.196 887.805 90.98 867.551 90.98C847.461 90.98 834.095 98.196 834.095 116.4C834.095 134.604 847.461 141.82 866.731 141.82C886.985 141.82 897.563 135.588 900.023 122.55H880.753C876.735 125.748 873.865 126.24 866.731 126.24ZM867.469 104.92C872.717 104.92 877.637 105.412 879.851 109.84H855.087C857.301 105.412 862.221 104.92 867.469 104.92ZM901.681 124.026C901.681 139.442 918.081 141.82 936.695 141.82C955.309 141.82 968.429 139.442 968.429 124.436C968.429 111.562 956.047 110.414 936.695 109.43C924.231 108.774 922.181 108.856 922.181 106.806C922.181 104.92 925.051 104.92 935.055 104.92C943.829 104.92 947.109 104.92 947.109 107.544H966.789C966.789 93.358 954.079 90.98 935.875 90.98C917.671 90.98 902.501 93.358 902.501 107.38C902.501 119.926 912.423 121.648 935.055 122.55C946.863 123.042 948.749 122.796 948.749 125.256C948.749 127.388 946.863 127.88 935.875 127.88C923.985 127.88 921.361 126.814 921.361 124.026H901.681Z" fill="#545454"/>
</svg>
